<?xml version="1.0" encoding="utf-8"?>
<!-- Generator: Adobe Illustrator 16.0.0, SVG Export Plug-In . SVG Version: 6.00 Build 0)  -->
<!DOCTYPE svg PUBLIC "-//W3C//DTD SVG 1.1//EN" "http://www.w3.org/Graphics/SVG/1.1/DTD/svg11.dtd">
<svg version="1.1" xmlns="http://www.w3.org/2000/svg" xmlns:xlink="http://www.w3.org/1999/xlink" x="0px" y="0px" width="175px"
	 height="40px" viewBox="0 0 175 40" enable-background="new 0 0 175 40" xml:space="preserve">
<g id="Layer_2" display="none">
	<rect x="-0.058" display="inline" fill="#2C3E50" width="175.058" height="40"/>
</g>
<g id="Layer_1">
	<g>
		<circle fill="none" cx="15.978" cy="19.999" r="15.981"/>
		<g>
			
				<linearGradient id="SVGID_1_" gradientUnits="userSpaceOnUse" x1="171.6436" y1="-187.7295" x2="179.9993" y2="-218.9136" gradientTransform="matrix(0.7071 -0.7071 0.7071 0.7071 32.5979 283.1988)">
				<stop  offset="0" style="stop-color:#6B6B6B"/>
				<stop  offset="0.0099" style="stop-color:#707070"/>
				<stop  offset="0.1056" style="stop-color:#969696"/>
				<stop  offset="0.2086" style="stop-color:#B6B6B6"/>
				<stop  offset="0.3189" style="stop-color:#D1D1D1"/>
				<stop  offset="0.4392" style="stop-color:#E5E5E5"/>
				<stop  offset="0.5745" style="stop-color:#F4F4F4"/>
				<stop  offset="0.737" style="stop-color:#FCFCFC"/>
				<stop  offset="1" style="stop-color:#FFFFFF"/>
			</linearGradient>
			<path fill="url(#SVGID_1_)" d="M15.964,15.396c1.104-1.103,1.783-2.586,1.896-4.142c0.111-1.534-0.329-3.085-1.238-4.327
				c-0.199-0.272-0.42-0.529-0.658-0.768c-1.154,1.154-2.308,2.309-3.462,3.463c-0.815,0.813-1.63,1.63-2.444,2.443
				c-0.746,0.745-1.494,1.495-2.24,2.241C7.374,14.749,6.906,15.18,6.49,15.65c-1.031,1.159-1.619,2.671-1.646,4.222
				c-0.027,1.545,0.504,3.073,1.488,4.266c1.002,1.212,2.427,2.037,3.979,2.293c1.51,0.246,3.088-0.048,4.403-0.83
				c0.466-0.278,0.896-0.612,1.278-0.996c-1.104,1.102-1.782,2.584-1.896,4.14c-0.111,1.536,0.329,3.087,1.238,4.329
				c0.199,0.273,0.419,0.529,0.658,0.768c1.154-1.154,2.308-2.309,3.462-3.463c0.815-0.815,1.629-1.628,2.443-2.444
				c0.748-0.745,1.495-1.492,2.241-2.24c0.443-0.444,0.911-0.873,1.327-1.343c1.032-1.159,1.619-2.673,1.646-4.223
				c0.026-1.544-0.504-3.073-1.489-4.266c-1.001-1.213-2.426-2.039-3.979-2.294c-1.51-0.247-3.088,0.048-4.403,0.831
				C16.777,14.677,16.347,15.013,15.964,15.396z"/>
		</g>
	</g>
	<g>
		<g>
			<linearGradient id="SVGID_2_" gradientUnits="userSpaceOnUse" x1="31.646" y1="20.312" x2="43.1572" y2="20.312">
				<stop  offset="0" style="stop-color:#FFFFFF"/>
				<stop  offset="0.263" style="stop-color:#FCFCFC"/>
				<stop  offset="0.4255" style="stop-color:#F4F4F4"/>
				<stop  offset="0.5608" style="stop-color:#E5E5E5"/>
				<stop  offset="0.6811" style="stop-color:#D1D1D1"/>
				<stop  offset="0.7914" style="stop-color:#B6B6B6"/>
				<stop  offset="0.8944" style="stop-color:#969696"/>
				<stop  offset="0.9901" style="stop-color:#707070"/>
				<stop  offset="1" style="stop-color:#6B6B6B"/>
			</linearGradient>
			<path fill="url(#SVGID_2_)" d="M42.118,21.021c0.354,0.394,0.616,0.824,0.785,1.293c0.169,0.469,0.254,1.014,0.254,1.635
				c0,1.479-0.547,2.7-1.641,3.66c-1.094,0.96-2.452,1.44-4.073,1.44c-0.749,0-1.496-0.116-2.243-0.348
				c-0.749-0.233-1.394-0.515-1.937-0.845l-0.508,0.861h-0.944l-0.165-5.738h0.956c0.196,0.709,0.427,1.349,0.69,1.919
				c0.264,0.572,0.612,1.104,1.045,1.6c0.409,0.465,0.887,0.835,1.435,1.11c0.546,0.275,1.183,0.413,1.907,0.413
				c0.543,0,1.017-0.07,1.423-0.212c0.405-0.142,0.734-0.344,0.985-0.604c0.252-0.261,0.438-0.565,0.561-0.917
				c0.121-0.351,0.183-0.754,0.183-1.212c0-0.669-0.189-1.294-0.566-1.873c-0.379-0.579-0.941-1.019-1.689-1.318
				c-0.512-0.204-1.098-0.429-1.759-0.678c-0.661-0.244-1.231-0.479-1.712-0.698c-0.945-0.425-1.678-0.981-2.202-1.669
				c-0.524-0.689-0.786-1.588-0.786-2.697c0-0.638,0.13-1.232,0.39-1.783c0.26-0.551,0.63-1.043,1.11-1.475
				c0.456-0.41,0.996-0.73,1.617-0.962c0.622-0.232,1.271-0.348,1.948-0.348c0.771,0,1.462,0.118,2.072,0.354
				c0.609,0.236,1.167,0.512,1.67,0.827l0.483-0.803h0.945l0.094,5.561h-0.956c-0.173-0.637-0.368-1.247-0.584-1.83
				s-0.498-1.11-0.844-1.583c-0.339-0.456-0.752-0.82-1.239-1.091c-0.489-0.272-1.086-0.407-1.794-0.407
				c-0.749,0-1.386,0.24-1.913,0.719c-0.528,0.48-0.791,1.067-0.791,1.76c0,0.724,0.168,1.324,0.508,1.8
				c0.338,0.476,0.83,0.868,1.476,1.175c0.575,0.276,1.139,0.513,1.694,0.714c0.554,0.201,1.092,0.415,1.611,0.643
				c0.472,0.205,0.927,0.436,1.363,0.697C41.416,20.371,41.795,20.674,42.118,21.021z"/>
			<linearGradient id="SVGID_3_" gradientUnits="userSpaceOnUse" x1="45.0459" y1="22.8682" x2="55.979" y2="22.8682">
				<stop  offset="0" style="stop-color:#FFFFFF"/>
				<stop  offset="0.263" style="stop-color:#FCFCFC"/>
				<stop  offset="0.4255" style="stop-color:#F4F4F4"/>
				<stop  offset="0.5608" style="stop-color:#E5E5E5"/>
				<stop  offset="0.6811" style="stop-color:#D1D1D1"/>
				<stop  offset="0.7914" style="stop-color:#B6B6B6"/>
				<stop  offset="0.8944" style="stop-color:#969696"/>
				<stop  offset="0.9901" style="stop-color:#707070"/>
				<stop  offset="1" style="stop-color:#6B6B6B"/>
			</linearGradient>
			<path fill="url(#SVGID_3_)" d="M55.979,28.494c-0.371,0.133-0.695,0.241-0.974,0.325c-0.28,0.082-0.597,0.123-0.951,0.123
				c-0.614,0-1.104-0.144-1.47-0.432c-0.366-0.286-0.601-0.705-0.703-1.257h-0.071c-0.511,0.566-1.06,1.001-1.646,1.299
				c-0.587,0.299-1.293,0.449-2.12,0.449c-0.874,0-1.592-0.269-2.154-0.803c-0.563-0.535-0.844-1.236-0.844-2.103
				c0-0.448,0.063-0.851,0.188-1.204c0.126-0.354,0.315-0.674,0.567-0.956c0.197-0.236,0.456-0.446,0.778-0.633
				c0.323-0.185,0.626-0.331,0.91-0.442c0.354-0.134,1.072-0.382,2.155-0.744c1.082-0.361,1.813-0.645,2.19-0.85v-1.169
				c0-0.102-0.022-0.298-0.065-0.59c-0.044-0.291-0.136-0.566-0.278-0.827c-0.157-0.291-0.379-0.544-0.667-0.761
				c-0.288-0.216-0.695-0.324-1.223-0.324c-0.362,0-0.698,0.06-1.009,0.183c-0.311,0.123-0.529,0.25-0.655,0.384
				c0,0.158,0.037,0.39,0.112,0.696c0.075,0.307,0.112,0.591,0.112,0.85c0,0.276-0.124,0.528-0.372,0.757
				c-0.248,0.228-0.593,0.341-1.033,0.341c-0.394,0-0.683-0.14-0.868-0.419s-0.278-0.591-0.278-0.938
				c0-0.362,0.129-0.709,0.383-1.039c0.257-0.331,0.589-0.625,0.999-0.886c0.354-0.22,0.783-0.407,1.287-0.561
				c0.503-0.153,0.996-0.23,1.476-0.23c0.661,0,1.238,0.045,1.73,0.135c0.491,0.091,0.938,0.286,1.339,0.584
				c0.402,0.292,0.707,0.687,0.916,1.187c0.208,0.5,0.313,1.143,0.313,1.93c0,1.125-0.012,2.123-0.035,2.993
				c-0.024,0.87-0.036,1.82-0.036,2.851c0,0.308,0.053,0.552,0.16,0.732c0.106,0.182,0.269,0.335,0.489,0.461
				c0.118,0.071,0.306,0.11,0.562,0.118c0.255,0.008,0.517,0.011,0.785,0.011V28.494z M51.858,22.26
				c-0.668,0.198-1.255,0.391-1.759,0.58c-0.503,0.188-0.972,0.426-1.405,0.709c-0.393,0.27-0.704,0.587-0.932,0.953
				c-0.229,0.368-0.342,0.804-0.342,1.308c0,0.655,0.171,1.136,0.514,1.443c0.342,0.309,0.777,0.461,1.304,0.461
				c0.559,0,1.051-0.136,1.477-0.408c0.425-0.271,0.782-0.593,1.074-0.963L51.858,22.26z"/>
			<linearGradient id="SVGID_4_" gradientUnits="userSpaceOnUse" x1="57.0063" y1="22.7441" x2="66.0498" y2="22.7441">
				<stop  offset="0" style="stop-color:#FFFFFF"/>
				<stop  offset="0.263" style="stop-color:#FCFCFC"/>
				<stop  offset="0.4255" style="stop-color:#F4F4F4"/>
				<stop  offset="0.5608" style="stop-color:#E5E5E5"/>
				<stop  offset="0.6811" style="stop-color:#D1D1D1"/>
				<stop  offset="0.7914" style="stop-color:#B6B6B6"/>
				<stop  offset="0.8944" style="stop-color:#969696"/>
				<stop  offset="0.9901" style="stop-color:#707070"/>
				<stop  offset="1" style="stop-color:#6B6B6B"/>
			</linearGradient>
			<path fill="url(#SVGID_4_)" d="M66.05,18.565c0,0.401-0.098,0.757-0.295,1.067c-0.197,0.313-0.5,0.466-0.909,0.466
				c-0.441,0-0.777-0.113-1.009-0.341c-0.233-0.229-0.348-0.48-0.348-0.756c0-0.173,0.013-0.331,0.041-0.472
				c0.028-0.143,0.053-0.284,0.077-0.425c-0.37,0-0.803,0.149-1.298,0.449c-0.497,0.3-0.917,0.724-1.264,1.276v6.777
				c0,0.275,0.053,0.499,0.16,0.672c0.105,0.174,0.273,0.304,0.501,0.391c0.196,0.078,0.451,0.138,0.761,0.176
				c0.311,0.04,0.581,0.067,0.809,0.084v0.779h-6.139v-0.779c0.181-0.017,0.368-0.032,0.561-0.048
				c0.193-0.016,0.36-0.048,0.502-0.094c0.22-0.072,0.384-0.194,0.49-0.373c0.107-0.175,0.16-0.405,0.16-0.688v-7.183
				c0-0.243-0.058-0.484-0.171-0.719c-0.115-0.237-0.273-0.425-0.479-0.566c-0.15-0.094-0.326-0.163-0.531-0.206
				c-0.205-0.043-0.425-0.072-0.661-0.089v-0.779l3.872-0.26l0.166,0.166v1.642h0.06c0.488-0.638,1.031-1.122,1.629-1.453
				c0.598-0.33,1.145-0.496,1.641-0.496c0.496,0,0.898,0.162,1.21,0.484C65.894,17.589,66.05,18.021,66.05,18.565z"/>
			<linearGradient id="SVGID_5_" gradientUnits="userSpaceOnUse" x1="66.6997" y1="19.7632" x2="72.6855" y2="19.7632">
				<stop  offset="0" style="stop-color:#FFFFFF"/>
				<stop  offset="0.263" style="stop-color:#FCFCFC"/>
				<stop  offset="0.4255" style="stop-color:#F4F4F4"/>
				<stop  offset="0.5608" style="stop-color:#E5E5E5"/>
				<stop  offset="0.6811" style="stop-color:#D1D1D1"/>
				<stop  offset="0.7914" style="stop-color:#B6B6B6"/>
				<stop  offset="0.8944" style="stop-color:#969696"/>
				<stop  offset="0.9901" style="stop-color:#707070"/>
				<stop  offset="1" style="stop-color:#6B6B6B"/>
			</linearGradient>
			<path fill="url(#SVGID_5_)" d="M72.686,28.707h-5.62v-0.779c0.181-0.017,0.367-0.032,0.56-0.048
				c0.193-0.016,0.36-0.048,0.502-0.094c0.221-0.072,0.384-0.194,0.49-0.373c0.106-0.175,0.16-0.405,0.16-0.688v-7.183
				c0-0.252-0.058-0.481-0.171-0.69c-0.114-0.208-0.273-0.383-0.479-0.524c-0.149-0.094-0.366-0.175-0.649-0.242
				c-0.283-0.067-0.543-0.107-0.779-0.124v-0.779l4.108-0.26l0.166,0.166v9.492c0,0.275,0.053,0.504,0.159,0.684
				c0.105,0.183,0.271,0.316,0.498,0.403c0.172,0.069,0.34,0.128,0.504,0.17c0.164,0.044,0.347,0.073,0.551,0.09V28.707z
				 M71.209,12.331c0,0.448-0.147,0.84-0.442,1.174c-0.295,0.335-0.659,0.503-1.092,0.503c-0.402,0-0.75-0.16-1.044-0.479
				c-0.296-0.319-0.443-0.683-0.443-1.092c0-0.433,0.147-0.811,0.443-1.134c0.295-0.322,0.643-0.484,1.044-0.484
				c0.448,0,0.816,0.152,1.104,0.455C71.066,11.577,71.209,11.93,71.209,12.331z"/>
			<linearGradient id="SVGID_6_" gradientUnits="userSpaceOnUse" x1="73.4292" y1="21.2217" x2="81.3154" y2="21.2217">
				<stop  offset="0" style="stop-color:#FFFFFF"/>
				<stop  offset="0.263" style="stop-color:#FCFCFC"/>
				<stop  offset="0.4255" style="stop-color:#F4F4F4"/>
				<stop  offset="0.5608" style="stop-color:#E5E5E5"/>
				<stop  offset="0.6811" style="stop-color:#D1D1D1"/>
				<stop  offset="0.7914" style="stop-color:#B6B6B6"/>
				<stop  offset="0.8944" style="stop-color:#969696"/>
				<stop  offset="0.9901" style="stop-color:#707070"/>
				<stop  offset="1" style="stop-color:#6B6B6B"/>
			</linearGradient>
			<path fill="url(#SVGID_6_)" d="M81.315,28.199c-0.511,0.212-0.995,0.391-1.452,0.536c-0.457,0.146-1.016,0.22-1.677,0.22
				c-0.976,0-1.662-0.246-2.06-0.738c-0.398-0.492-0.597-1.188-0.597-2.084v-7.887h-2.101v-1.133h2.148v-3.624h2.149v3.624h3.341
				v1.133h-3.318v6.506c0,0.487,0.019,0.895,0.054,1.222c0.036,0.327,0.12,0.612,0.254,0.855c0.125,0.229,0.315,0.401,0.566,0.52
				c0.253,0.118,0.591,0.178,1.017,0.178c0.196,0,0.485-0.019,0.868-0.054c0.381-0.036,0.65-0.081,0.808-0.135V28.199z"/>
			<linearGradient id="SVGID_7_" gradientUnits="userSpaceOnUse" x1="82.5674" y1="22.8682" x2="93.499" y2="22.8682">
				<stop  offset="0" style="stop-color:#FFFFFF"/>
				<stop  offset="0.263" style="stop-color:#FCFCFC"/>
				<stop  offset="0.4255" style="stop-color:#F4F4F4"/>
				<stop  offset="0.5608" style="stop-color:#E5E5E5"/>
				<stop  offset="0.6811" style="stop-color:#D1D1D1"/>
				<stop  offset="0.7914" style="stop-color:#B6B6B6"/>
				<stop  offset="0.8944" style="stop-color:#969696"/>
				<stop  offset="0.9901" style="stop-color:#707070"/>
				<stop  offset="1" style="stop-color:#6B6B6B"/>
			</linearGradient>
			<path fill="url(#SVGID_7_)" d="M93.499,28.494c-0.369,0.133-0.694,0.241-0.973,0.325c-0.279,0.082-0.598,0.123-0.95,0.123
				c-0.614,0-1.105-0.144-1.47-0.432c-0.367-0.286-0.602-0.705-0.703-1.257h-0.071c-0.512,0.566-1.061,1.001-1.646,1.299
				c-0.587,0.299-1.293,0.449-2.12,0.449c-0.874,0-1.592-0.269-2.154-0.803c-0.563-0.535-0.844-1.236-0.844-2.103
				c0-0.448,0.063-0.851,0.188-1.204c0.126-0.354,0.314-0.674,0.566-0.956c0.197-0.236,0.456-0.446,0.779-0.633
				c0.323-0.185,0.626-0.331,0.909-0.442c0.355-0.134,1.073-0.382,2.153-0.744c1.083-0.361,1.813-0.645,2.191-0.85v-1.169
				c0-0.102-0.021-0.298-0.064-0.59c-0.044-0.291-0.136-0.566-0.277-0.827c-0.158-0.291-0.38-0.544-0.668-0.761
				c-0.286-0.216-0.693-0.324-1.222-0.324c-0.361,0-0.698,0.06-1.009,0.183s-0.53,0.25-0.656,0.384c0,0.158,0.038,0.39,0.112,0.696
				c0.075,0.307,0.112,0.591,0.112,0.85c0,0.276-0.124,0.528-0.372,0.757c-0.247,0.228-0.592,0.341-1.032,0.341
				c-0.394,0-0.683-0.14-0.868-0.419s-0.277-0.591-0.277-0.938c0-0.362,0.128-0.709,0.383-1.039
				c0.257-0.331,0.589-0.625,0.998-0.886c0.354-0.22,0.784-0.407,1.288-0.561c0.502-0.153,0.994-0.23,1.476-0.23
				c0.661,0,1.236,0.045,1.729,0.135c0.492,0.091,0.938,0.286,1.341,0.584c0.4,0.292,0.706,0.687,0.914,1.187
				s0.313,1.143,0.313,1.93c0,1.125-0.013,2.123-0.037,2.993c-0.021,0.87-0.034,1.82-0.034,2.851c0,0.308,0.054,0.552,0.159,0.732
				c0.106,0.182,0.27,0.335,0.49,0.461c0.117,0.071,0.305,0.11,0.561,0.118s0.518,0.011,0.784,0.011V28.494z M89.379,22.26
				c-0.669,0.198-1.255,0.391-1.759,0.58c-0.504,0.188-0.972,0.426-1.404,0.709c-0.395,0.27-0.705,0.587-0.933,0.953
				c-0.229,0.368-0.343,0.804-0.343,1.308c0,0.655,0.171,1.136,0.513,1.443c0.343,0.309,0.777,0.461,1.306,0.461
				c0.559,0,1.05-0.136,1.476-0.408c0.425-0.271,0.783-0.593,1.074-0.963L89.379,22.26z"/>
		</g>
		<g>
			<linearGradient id="SVGID_8_" gradientUnits="userSpaceOnUse" x1="99.2842" y1="20.3301" x2="120.04" y2="20.3301">
				<stop  offset="0" style="stop-color:#FFFFFF"/>
				<stop  offset="0.263" style="stop-color:#FCFCFC"/>
				<stop  offset="0.4255" style="stop-color:#F4F4F4"/>
				<stop  offset="0.5608" style="stop-color:#E5E5E5"/>
				<stop  offset="0.6811" style="stop-color:#D1D1D1"/>
				<stop  offset="0.7914" style="stop-color:#B6B6B6"/>
				<stop  offset="0.8944" style="stop-color:#969696"/>
				<stop  offset="0.9901" style="stop-color:#707070"/>
				<stop  offset="1" style="stop-color:#6B6B6B"/>
			</linearGradient>
			<path fill="url(#SVGID_8_)" d="M120.04,28.707h-7.402v-0.839c0.268-0.008,0.61-0.036,1.032-0.082
				c0.423-0.049,0.711-0.114,0.869-0.201c0.243-0.149,0.422-0.321,0.535-0.514c0.115-0.193,0.173-0.435,0.173-0.727V14.161h-0.177
				l-5.715,14.272h-0.591l-5.442-14.568h-0.153v10c0,0.97,0.061,1.705,0.184,2.208c0.12,0.504,0.308,0.867,0.56,1.087
				c0.174,0.166,0.532,0.322,1.074,0.473c0.545,0.149,0.897,0.228,1.063,0.235v0.839h-6.765v-0.839
				c0.354-0.031,0.726-0.091,1.116-0.177c0.389-0.087,0.691-0.217,0.902-0.39c0.277-0.221,0.464-0.559,0.568-1.016
				c0.102-0.457,0.153-1.221,0.153-2.291v-8.571c0-0.496-0.061-0.9-0.178-1.216c-0.118-0.315-0.287-0.571-0.509-0.768
				c-0.242-0.212-0.543-0.37-0.896-0.472c-0.354-0.102-0.705-0.161-1.051-0.177v-0.838h5.712l4.799,12.575l4.096-10.519
				c0.151-0.386,0.278-0.791,0.386-1.212c0.106-0.42,0.163-0.702,0.17-0.844h5.463v0.838c-0.219,0.007-0.5,0.043-0.844,0.106
				c-0.344,0.063-0.593,0.122-0.749,0.176c-0.269,0.095-0.45,0.252-0.542,0.473c-0.095,0.221-0.143,0.461-0.143,0.72v12.078
				c0,0.275,0.048,0.509,0.143,0.696c0.092,0.189,0.273,0.354,0.542,0.496c0.143,0.079,0.394,0.151,0.756,0.219
				s0.65,0.104,0.861,0.112V28.707z"/>
			<linearGradient id="SVGID_9_" gradientUnits="userSpaceOnUse" x1="121.9639" y1="22.8975" x2="133.3467" y2="22.8975">
				<stop  offset="0" style="stop-color:#FFFFFF"/>
				<stop  offset="0.263" style="stop-color:#FCFCFC"/>
				<stop  offset="0.4255" style="stop-color:#F4F4F4"/>
				<stop  offset="0.5608" style="stop-color:#E5E5E5"/>
				<stop  offset="0.6811" style="stop-color:#D1D1D1"/>
				<stop  offset="0.7914" style="stop-color:#B6B6B6"/>
				<stop  offset="0.8944" style="stop-color:#969696"/>
				<stop  offset="0.9901" style="stop-color:#707070"/>
				<stop  offset="1" style="stop-color:#6B6B6B"/>
			</linearGradient>
			<path fill="url(#SVGID_9_)" d="M133.347,22.769c0,0.817-0.13,1.622-0.391,2.413c-0.261,0.792-0.631,1.463-1.109,2.014
				c-0.544,0.629-1.177,1.098-1.892,1.404c-0.717,0.307-1.521,0.46-2.411,0.46c-0.742,0-1.446-0.139-2.115-0.418
				c-0.671-0.279-1.266-0.687-1.786-1.223c-0.512-0.526-0.919-1.17-1.224-1.931c-0.302-0.758-0.455-1.611-0.455-2.555
				c0-1.818,0.53-3.307,1.591-4.464c1.059-1.156,2.448-1.735,4.165-1.735c1.632,0,2.978,0.549,4.038,1.646
				C132.815,19.479,133.347,20.942,133.347,22.769z M130.901,22.792c0-0.592-0.059-1.215-0.176-1.872
				c-0.12-0.656-0.297-1.214-0.532-1.671c-0.254-0.487-0.586-0.879-0.994-1.175c-0.409-0.295-0.911-0.442-1.502-0.442
				c-0.609,0-1.126,0.149-1.555,0.449c-0.431,0.299-0.78,0.708-1.049,1.228c-0.25,0.48-0.429,1.027-0.531,1.641
				c-0.103,0.614-0.153,1.208-0.153,1.784c0,0.755,0.06,1.453,0.183,2.095c0.123,0.643,0.318,1.215,0.585,1.718
				c0.27,0.504,0.605,0.899,1.011,1.186c0.408,0.288,0.909,0.432,1.51,0.432c0.986,0,1.765-0.476,2.341-1.429
				C130.615,25.782,130.901,24.467,130.901,22.792z"/>
			<linearGradient id="SVGID_10_" gradientUnits="userSpaceOnUse" x1="134.3271" y1="21.2217" x2="142.2139" y2="21.2217">
				<stop  offset="0" style="stop-color:#FFFFFF"/>
				<stop  offset="0.263" style="stop-color:#FCFCFC"/>
				<stop  offset="0.4255" style="stop-color:#F4F4F4"/>
				<stop  offset="0.5608" style="stop-color:#E5E5E5"/>
				<stop  offset="0.6811" style="stop-color:#D1D1D1"/>
				<stop  offset="0.7914" style="stop-color:#B6B6B6"/>
				<stop  offset="0.8944" style="stop-color:#969696"/>
				<stop  offset="0.9901" style="stop-color:#707070"/>
				<stop  offset="1" style="stop-color:#6B6B6B"/>
			</linearGradient>
			<path fill="url(#SVGID_10_)" d="M142.214,28.199c-0.514,0.212-0.997,0.391-1.452,0.536c-0.457,0.146-1.017,0.22-1.679,0.22
				c-0.975,0-1.662-0.246-2.061-0.738c-0.396-0.492-0.594-1.188-0.594-2.084v-7.887h-2.102v-1.133h2.148v-3.624h2.148v3.624h3.34
				v1.133h-3.316v6.506c0,0.487,0.018,0.895,0.053,1.222c0.036,0.327,0.12,0.612,0.255,0.855c0.125,0.229,0.313,0.401,0.566,0.52
				c0.252,0.118,0.591,0.178,1.014,0.178c0.198,0,0.488-0.019,0.868-0.054c0.383-0.036,0.653-0.081,0.811-0.135V28.199z"/>
			<linearGradient id="SVGID_11_" gradientUnits="userSpaceOnUse" x1="143.3447" y1="22.8975" x2="154.7275" y2="22.8975">
				<stop  offset="0" style="stop-color:#FFFFFF"/>
				<stop  offset="0.263" style="stop-color:#FCFCFC"/>
				<stop  offset="0.4255" style="stop-color:#F4F4F4"/>
				<stop  offset="0.5608" style="stop-color:#E5E5E5"/>
				<stop  offset="0.6811" style="stop-color:#D1D1D1"/>
				<stop  offset="0.7914" style="stop-color:#B6B6B6"/>
				<stop  offset="0.8944" style="stop-color:#969696"/>
				<stop  offset="0.9901" style="stop-color:#707070"/>
				<stop  offset="1" style="stop-color:#6B6B6B"/>
			</linearGradient>
			<path fill="url(#SVGID_11_)" d="M154.728,22.769c0,0.817-0.13,1.622-0.39,2.413c-0.26,0.792-0.631,1.463-1.11,2.014
				c-0.544,0.629-1.174,1.098-1.892,1.404c-0.717,0.307-1.521,0.46-2.411,0.46c-0.74,0-1.446-0.139-2.116-0.418
				s-1.265-0.687-1.783-1.223c-0.514-0.526-0.921-1.17-1.223-1.931c-0.305-0.758-0.458-1.611-0.458-2.555
				c0-1.818,0.53-3.307,1.591-4.464c1.059-1.156,2.449-1.735,4.168-1.735c1.63,0,2.975,0.549,4.034,1.646
				C154.199,19.479,154.728,20.942,154.728,22.769z M152.284,22.792c0-0.592-0.058-1.215-0.178-1.872
				c-0.119-0.656-0.296-1.214-0.532-1.671c-0.252-0.487-0.583-0.879-0.994-1.175c-0.409-0.295-0.911-0.442-1.502-0.442
				c-0.607,0-1.124,0.149-1.555,0.449c-0.429,0.299-0.78,0.708-1.047,1.228c-0.253,0.48-0.431,1.027-0.534,1.641
				c-0.101,0.614-0.153,1.208-0.153,1.784c0,0.755,0.063,1.453,0.184,2.095c0.123,0.643,0.319,1.215,0.588,1.718
				c0.267,0.504,0.603,0.899,1.01,1.186c0.407,0.288,0.908,0.432,1.508,0.432c0.985,0,1.767-0.476,2.343-1.429
				C151.996,25.782,152.284,24.467,152.284,22.792z"/>
			<linearGradient id="SVGID_12_" gradientUnits="userSpaceOnUse" x1="156.2734" y1="22.7441" x2="165.3184" y2="22.7441">
				<stop  offset="0" style="stop-color:#FFFFFF"/>
				<stop  offset="0.263" style="stop-color:#FCFCFC"/>
				<stop  offset="0.4255" style="stop-color:#F4F4F4"/>
				<stop  offset="0.5608" style="stop-color:#E5E5E5"/>
				<stop  offset="0.6811" style="stop-color:#D1D1D1"/>
				<stop  offset="0.7914" style="stop-color:#B6B6B6"/>
				<stop  offset="0.8944" style="stop-color:#969696"/>
				<stop  offset="0.9901" style="stop-color:#707070"/>
				<stop  offset="1" style="stop-color:#6B6B6B"/>
			</linearGradient>
			<path fill="url(#SVGID_12_)" d="M165.318,18.565c0,0.401-0.099,0.757-0.295,1.067c-0.196,0.313-0.501,0.466-0.909,0.466
				c-0.439,0-0.778-0.113-1.009-0.341c-0.232-0.229-0.35-0.48-0.35-0.756c0-0.173,0.015-0.331,0.041-0.472
				c0.029-0.143,0.054-0.284,0.076-0.425c-0.368,0-0.802,0.149-1.297,0.449c-0.496,0.3-0.918,0.724-1.265,1.276v6.777
				c0,0.275,0.053,0.499,0.16,0.672c0.106,0.174,0.273,0.304,0.501,0.391c0.198,0.078,0.45,0.138,0.762,0.176
				c0.312,0.04,0.58,0.067,0.809,0.084v0.779h-6.14v-0.779c0.182-0.017,0.369-0.032,0.561-0.048
				c0.194-0.016,0.361-0.048,0.504-0.094c0.22-0.072,0.382-0.194,0.489-0.373c0.106-0.175,0.159-0.405,0.159-0.688v-7.183
				c0-0.243-0.058-0.484-0.171-0.719c-0.114-0.237-0.274-0.425-0.478-0.566c-0.149-0.094-0.328-0.163-0.531-0.206
				c-0.207-0.043-0.426-0.072-0.663-0.089v-0.779l3.874-0.26l0.164,0.166v1.642h0.058c0.49-0.638,1.032-1.122,1.631-1.453
				c0.598-0.33,1.146-0.496,1.641-0.496c0.496,0,0.9,0.162,1.212,0.484C165.162,17.589,165.318,18.021,165.318,18.565z"/>
			<linearGradient id="SVGID_13_" gradientUnits="userSpaceOnUse" x1="166.3223" y1="22.8682" x2="175" y2="22.8682">
				<stop  offset="0" style="stop-color:#FFFFFF"/>
				<stop  offset="0.263" style="stop-color:#FCFCFC"/>
				<stop  offset="0.4255" style="stop-color:#F4F4F4"/>
				<stop  offset="0.5608" style="stop-color:#E5E5E5"/>
				<stop  offset="0.6811" style="stop-color:#D1D1D1"/>
				<stop  offset="0.7914" style="stop-color:#B6B6B6"/>
				<stop  offset="0.8944" style="stop-color:#969696"/>
				<stop  offset="0.9901" style="stop-color:#707070"/>
				<stop  offset="1" style="stop-color:#6B6B6B"/>
			</linearGradient>
			<path fill="url(#SVGID_13_)" d="M173.997,23.003c0.321,0.283,0.57,0.611,0.743,0.98c0.173,0.37,0.26,0.823,0.26,1.358
				c0,1.078-0.403,1.96-1.212,2.644c-0.806,0.685-1.851,1.027-3.133,1.027c-0.677,0-1.302-0.122-1.873-0.365
				c-0.57-0.244-0.977-0.469-1.222-0.673l-0.235,0.768h-0.886l-0.117-4.051h0.814c0.063,0.309,0.196,0.668,0.4,1.08
				c0.204,0.409,0.454,0.781,0.744,1.113c0.308,0.348,0.676,0.64,1.104,0.876s0.911,0.356,1.445,0.356
				c0.756,0,1.338-0.173,1.749-0.518c0.408-0.346,0.611-0.838,0.611-1.479c0-0.33-0.063-0.616-0.192-0.855
				c-0.131-0.239-0.321-0.45-0.574-0.632c-0.26-0.182-0.578-0.344-0.955-0.49c-0.379-0.145-0.8-0.289-1.263-0.43
				c-0.371-0.11-0.783-0.262-1.235-0.454c-0.452-0.193-0.84-0.421-1.162-0.681c-0.348-0.275-0.63-0.613-0.851-1.015
				c-0.221-0.4-0.331-0.873-0.331-1.417c0-0.953,0.354-1.76,1.063-2.42c0.708-0.661,1.656-0.991,2.847-0.991
				c0.455,0,0.922,0.059,1.399,0.177c0.475,0.118,0.862,0.26,1.161,0.424l0.272-0.613h0.851l0.178,3.743h-0.816
				c-0.165-0.838-0.521-1.521-1.067-2.046c-0.548-0.526-1.214-0.789-2.003-0.789c-0.644,0-1.152,0.163-1.522,0.487
				c-0.37,0.325-0.553,0.718-0.553,1.178c0,0.353,0.06,0.648,0.183,0.884c0.121,0.237,0.304,0.438,0.549,0.603
				c0.234,0.158,0.531,0.305,0.891,0.442c0.357,0.138,0.801,0.293,1.328,0.467c0.519,0.165,1.009,0.358,1.47,0.578
				C173.316,22.492,173.696,22.737,173.997,23.003z"/>
		</g>
	</g>
</g>
</svg>
