<?xml version="1.0" encoding="iso-8859-1"?>
<!-- Generator: Adobe Illustrator 16.0.0, SVG Export Plug-In . SVG Version: 6.00 Build 0)  -->
<!DOCTYPE svg PUBLIC "-//W3C//DTD SVG 1.1//EN" "http://www.w3.org/Graphics/SVG/1.1/DTD/svg11.dtd">
<svg version="1.1" id="Capa_1" xmlns="http://www.w3.org/2000/svg" xmlns:xlink="http://www.w3.org/1999/xlink" x="0px" y="0px"
	 width="101.631px" height="101.631px" viewBox="0 0 101.631 101.631" style="enable-background:new 0 0 101.631 101.631;"
	 xml:space="preserve">
<g>
	<g>
		<path d="M99.616,72.187h0.01l0.021-2.221c0.055-4.363,0.1-8.487-2.019-13.134c-2.061-3.433-4.209-5.441-6.105-7.221
			c-2.95-2.756-4.907-4.639-5.017-10.65h-0.007c-0.007-0.934-0.045-2.421-0.164-3.619c4.106-0.522,9.277-2.839,8.846-9.665
			C94.705,18.295,83.648,8.709,83.648,8.709s4.12,3.621-5.209,16.817c-3.904,5.523,0.62,9.532,4.747,9.589
			c-0.37,4.568-0.15,4.611-0.15,4.611h0.02c0.302,6.935,2.964,9.542,6.071,12.445c1.813,1.697,3.689,3.456,5.4,6.286
			c1.335,2.933,1.595,5.756,1.622,8.815c-3.504-3.59-8.388-5.838-13.795-5.838h-3.61c-1.913-9.004-9.903-15.612-19.202-15.612
			H45.573c-9.293,0-17.291,6.608-19.2,15.612h-7.099C8.644,61.435,0,70.082,0,80.708v7.327h6.139V84.53H3.504v-3.822
			c0-8.695,7.072-15.77,15.769-15.77h10.118l0.198-1.522c1.063-8.032,7.935-14.093,15.99-14.093h13.97
			c8.056,0,14.927,6.061,15.991,14.093l0.198,1.522h6.626c8.698,0,15.769,7.074,15.769,15.77v3.822h-2.936v3.505h6.434v-7.327
			C101.627,77.646,100.895,74.764,99.616,72.187z"/>
		<circle cx="18.902" cy="83.205" r="9.717"/>
		<circle cx="81.605" cy="83.205" r="9.717"/>
		<polygon points="60.178,62.361 41.644,76.365 50.612,76.365 37.758,89.226 61.756,72.491 52.725,72.481 65.528,62.361 		"/>
	</g>
</g>
<g>
</g>
<g>
</g>
<g>
</g>
<g>
</g>
<g>
</g>
<g>
</g>
<g>
</g>
<g>
</g>
<g>
</g>
<g>
</g>
<g>
</g>
<g>
</g>
<g>
</g>
<g>
</g>
<g>
</g>
</svg>
