<?xml version="1.0" encoding="iso-8859-1"?>
<!-- Generator: Adobe Illustrator 19.1.0, SVG Export Plug-In . SVG Version: 6.00 Build 0)  -->
<svg version="1.1" id="Capa_1" xmlns="http://www.w3.org/2000/svg" xmlns:xlink="http://www.w3.org/1999/xlink" x="0px" y="0px"
	 viewBox="0 0 63 63" style="enable-background:new 0 0 63 63;" xml:space="preserve">
<g>
	<g id="group-17svg">
		<path id="path-1_7_" style="fill:#53ECF4;" d="M12,57.144H9.312C7.074,57.144,5,55.117,5,52.88v-3.831
			c0-4.475,3.888-7.905,8.362-7.905h42.644c4.473,0,6.994,3.43,6.994,7.905v3.831c0,2.237-0.707,4.264-2.944,4.264H57l0,0"/>
		<path id="path-2_7_" style="fill:#FF917B;" d="M14.705,39.575c0-6.832,7.385-12.37,16.494-12.37c9.11,0,16.494,5.538,16.494,12.37
			l0,0"/>
		<path id="path-3_7_" style="fill:#FF917B;" d="M57.328,56.761c0,3.17-2.569,5.739-5.738,5.739s-5.738-2.569-5.738-5.739
			c0-3.169,2.569-5.738,5.738-5.738S57.328,53.592,57.328,56.761z"/>
		<path id="path-4_7_" style="fill:#FF917B;" d="M23.91,56.761c0,3.17-2.569,5.739-5.738,5.739s-5.738-2.569-5.738-5.739
			c0-3.169,2.569-5.738,5.738-5.738S23.91,53.592,23.91,56.761z"/>
		<path id="path-5_7_" style="fill:#EDC951;" d="M30,2.5v17.191c-5,0-8.596-3.848-8.596-8.595C21.404,6.348,25,2.5,30,2.5z"/>
		<path id="path-6_6_" d="M26.5,20.191c-5.661,0-10.096-4.434-10.096-10.096C16.404,4.434,20.839,0,26.5,0C27.328,0,28,0.672,28,1.5
			v17.191C28,19.52,27.328,20.191,26.5,20.191z M25,3.145c-3.276,0.652-5.596,3.424-5.596,6.95c0,3.528,2.32,6.299,5.596,6.951
			V3.145z"/>
		<path id="path-7_4_" d="M33,8.144h-6c-0.828,0-1.5-0.671-1.5-1.5c0-0.828,0.672-1.5,1.5-1.5h6c0.828,0,1.5,0.672,1.5,1.5
			C34.5,7.473,33.828,8.144,33,8.144z"/>
		<path id="path-8_2_" d="M33,15.144h-6c-0.828,0-1.5-0.671-1.5-1.5c0-0.828,0.672-1.5,1.5-1.5h6c0.828,0,1.5,0.672,1.5,1.5
			C34.5,14.473,33.828,15.144,33,15.144z"/>
		<path id="path-9_2_" d="M1.5,48.644c-0.828,0-1.5-0.671-1.5-1.5V26.349c0-2.724,2.446-5.205,5.132-5.205h0.179
			C6.385,21.144,7,20.535,7,19.472v-5.626c0-2.904,2.769-4.702,5.335-4.702H17c0.828,0,1.5,0.672,1.5,1.5c0,0.829-0.672,1.5-1.5,1.5
			h-4.665c-1.105,0-2.335,0.699-2.335,1.702v5.626c0,2.707-1.972,4.672-4.689,4.672H5.132C4.076,24.144,3,25.257,3,26.349v20.795
			C3,47.973,2.328,48.644,1.5,48.644z"/>
		<path id="path-10_2_" d="M56.056,57.144H54c-0.828,0-1.5-0.671-1.5-1.5c0-0.828,0.672-1.5,1.5-1.5h2.056
			c0.48,0,1.944,0,1.944-2.264v-3.831c0-3.347-2.101-6.905-5.994-6.905H9.362C5.854,41.144,3,44.241,3,48.049v3.831
			c0,1.397,0.886,2.264,2.311,2.264H8c0.828,0,1.5,0.672,1.5,1.5c0,0.829-0.672,1.5-1.5,1.5H5.311C2.233,57.144,0,54.93,0,51.88
			v-3.831c0-5.462,4.2-9.905,9.362-9.905h42.644c5.043,0,8.994,4.351,8.994,9.905v3.831C61,55.028,59.013,57.144,56.056,57.144z"/>
		<path id="path-11_1_" d="M41,57.144H20c-0.828,0-1.5-0.671-1.5-1.5c0-0.828,0.672-1.5,1.5-1.5h21c0.828,0,1.5,0.672,1.5,1.5
			C42.5,56.473,41.828,57.144,41,57.144z"/>
		<path id="path-12_1_" d="M43.693,40.075c-0.828,0-1.5-0.672-1.5-1.5c0-5.994-6.726-10.87-14.994-10.87
			c-8.267,0-14.994,4.876-14.994,10.87c0,0.828-0.672,1.5-1.5,1.5s-1.5-0.672-1.5-1.5c0-7.648,8.072-13.87,17.994-13.87
			s17.994,6.222,17.994,13.87C45.193,39.403,44.521,40.075,43.693,40.075z"/>
		<path id="path-13_1_" d="M47.59,63c-3.991,0-7.239-3.247-7.239-7.239c0-3.991,3.248-7.238,7.239-7.238s7.238,3.247,7.238,7.238
			C54.828,59.753,51.581,63,47.59,63z M47.59,51.523c-2.337,0-4.238,1.901-4.238,4.238c0,2.337,1.901,4.239,4.238,4.239
			c2.337,0,4.238-1.902,4.238-4.239C51.828,53.424,49.927,51.523,47.59,51.523z"/>
		<path id="path-14" d="M14.172,63c-3.991,0-7.238-3.247-7.238-7.239c0-3.991,3.247-7.238,7.238-7.238s7.238,3.247,7.238,7.238
			C21.41,59.753,18.163,63,14.172,63z M14.172,51.523c-2.337,0-4.238,1.901-4.238,4.238c0,2.337,1.901,4.239,4.238,4.239
			s4.238-1.902,4.238-4.239C18.41,53.424,16.509,51.523,14.172,51.523z"/>
		<path id="path-15" d="M26.5,40.644c-0.828,0-1.5-0.671-1.5-1.5v-13c0-0.828,0.672-1.5,1.5-1.5s1.5,0.672,1.5,1.5v13
			C28,39.973,27.328,40.644,26.5,40.644z"/>
		<path id="path-16" d="M59,47.144h-4c-0.828,0-1.5-0.671-1.5-1.5c0-0.828,0.672-1.5,1.5-1.5h4c0.828,0,1.5,0.672,1.5,1.5
			C60.5,46.473,59.828,47.144,59,47.144z"/>
	</g>
</g>
<g>
</g>
<g>
</g>
<g>
</g>
<g>
</g>
<g>
</g>
<g>
</g>
<g>
</g>
<g>
</g>
<g>
</g>
<g>
</g>
<g>
</g>
<g>
</g>
<g>
</g>
<g>
</g>
<g>
</g>
</svg>
